<svg viewBox="0 0 69.68 70" xmlns="http://www.w3.org/2000/svg"><g fill="#9683ec"><path d="m59.92 10.86c-14.23-13.64-18.53 17.49-18.53 17.49l.12.13s31.32-2.49 18.53-17.49"/><path d="m69.68 35.08c-.98-19.69-25.48-.01-25.48-.01v.17s24.48 19.7 25.48.01"/><path d="m60.15 59.41c12.75-15.03-18.58-17.44-18.58-17.44l-.12.13s4.38 31.12 18.58 17.44"/><path d="m9.76 10.86c14.23-13.64 18.53 17.49 18.53 17.49l-.12.13s-31.33-2.5-18.53-17.5"/><path d="m0 35.08c.98-19.69 25.48-.01 25.48-.01v.17s-24.48 19.7-25.48.01"/><path d="m9.52 59.41c-12.75-15.03 18.58-17.44 18.58-17.44l.12.13s-4.38 31.12-18.58 17.44"/><path d="m34.75 0c-19.69.99 0 25.48 0 25.48h.17s19.69-24.49 0-25.48"/><path d="m34.75 70c-19.69-.99 0-25.48 0-25.48h.17s19.69 24.49 0 25.48"/><circle cx="34.84" cy="35" r="4.2"/></g></svg>